<svg xmlns="http://www.w3.org/2000/svg" width="35" height="35" viewBox="0 0 35 35"><defs><style>.a{fill:#f7f8fc;}.b{fill:#1f222b;stroke:#1f222b;stroke-width:0.5px;}</style></defs><g transform="translate(-310 -179)"><rect class="a" width="35" height="35" rx="8" transform="translate(310 179)"/><path class="b" d="M3.4,5.859h2.87a2.428,2.428,0,0,0,4.784,0H19.6a.405.405,0,0,0,0-.811H11.059a2.428,2.428,0,0,0-4.784,0H3.4a.405.405,0,0,0,0,.811ZM8.667,3.832A1.622,1.622,0,1,1,7.048,5.454,1.62,1.62,0,0,1,8.667,3.832ZM19.6,11.13h-2.87a2.428,2.428,0,0,0-4.784,0H3.4a.405.405,0,0,0,0,.811h8.536a2.428,2.428,0,0,0,4.784,0H19.6a.405.405,0,0,0,0-.811Zm-5.262,2.027a1.622,1.622,0,1,1,1.619-1.622A1.62,1.62,0,0,1,14.333,13.157ZM19.6,17.212H11.059a2.428,2.428,0,0,0-4.784,0H3.4a.405.405,0,0,0,0,.811h2.87a2.428,2.428,0,0,0,4.784,0H19.6a.405.405,0,0,0,0-.811ZM8.667,19.239a1.622,1.622,0,1,1,1.619-1.622A1.62,1.62,0,0,1,8.667,19.239Z" transform="translate(316 184.965)"/></g></svg>