<svg xmlns="http://www.w3.org/2000/svg" width="208.945" height="129.721" viewBox="0 0 208.945 129.721"><defs><style>.a,.b{fill:#fff;}.a{stroke:#eb5d2b;stroke-linecap:square;stroke-linejoin:round;stroke-width:27px;}</style></defs><g transform="translate(10.955 11)"><g transform="translate(2.49 2.5)"><path class="a" d="M23.158,47.627H19.347V26.03H32.493v21.6H28.571V48.9H49.339v-1.27H45.418V3.77h3.922V2.5H28.571V3.77h3.922V24.318H19.347V3.77h3.811V2.5H2.5V3.77H6.422V47.627H2.5V48.9H23.158Z" transform="translate(-2.445 -2.5)"/><path class="a" d="M42.91,20.211C43.3,10.324,38.878,5.132,28.494,5.132A15.521,15.521,0,0,0,11.481,21.7,15.19,15.19,0,0,0,28.549,38.273,12.759,12.759,0,0,0,42.91,28.165H41.75a9.942,9.942,0,0,1-9.666,8.175c-6.463,0-7.843-5.524-7.843-13.091V20.211ZM24.3,15.793c0-7.015,1.27-9.28,3.59-9.28s3.369,2.154,3.369,9.28v3.259H24.3Z" transform="translate(37.844 9.063)"/><path class="a" d="M27.708,48.329a8.782,8.782,0,0,0,.442-2.375c0-3.093-2.154-4.585-5.524-4.585A5.026,5.026,0,0,0,17.1,46.893c0,4.2,3.314,6.683,8.285,6.683s8.672-2.651,11.655-11.047L49.8,6.35h3.314V5.19H43.781V6.35h4.474L40.577,28.444,33.231,6.35h3.59V5.19H17.71V6.35h2.707L31.74,36.729h5.855L36.1,40.817c-2.486,7.125-5.137,11.047-8.893,11.047-1.878,0-2.265-1.547-1.657-3.535Z" transform="translate(63.486 9.668)"/><path class="a" d="M26.988,58.823c-7.236,0-10.716-7.9-10.716-20.106V33.47c0-13.7,3.535-19.774,10.274-19.774,5.524,0,9.666,5.524,13.312,13.754h1.16l-.5-14.361h-.773c-.442.884-.718,1.326-1.768,1.326A66.281,66.281,0,0,0,25.607,12.37C12.02,12.37,2.74,20.821,2.74,36.894s8.617,23.144,22.646,23.144a69.762,69.762,0,0,0,13.2-2.1c1.049,0,1.326.5,1.768,1.326h.718l.5-14.748H40.355C36.654,53.244,32.346,58.823,26.988,58.823Z" transform="translate(-1.359 42.147)"/><path class="a" d="M27.89,15.171A15.3,15.3,0,0,0,10.712,31.742,14.858,14.858,0,0,0,27.283,48.313c11.765,0,16.571-6.076,16.571-16.9S38.993,15.171,27.89,15.171Zm3.7,19.111c0,8.617,0,12.538-3.977,12.538s-4.143-4.971-4.143-12.649V28.98c0-7.457,0-12.649,4.2-12.649s3.922,5.192,3.922,12.317Z" transform="translate(34.194 54.259)"/><path class="a" d="M34.41,15.171A15.3,15.3,0,0,0,17.232,31.742,14.858,14.858,0,0,0,33.8,48.313c11.82,0,16.571-6.076,16.571-16.9S45.513,15.171,34.41,15.171Zm3.7,19.111c0,8.617,0,12.538-3.977,12.538s-4.2-4.971-4.2-12.649V28.98c0-7.457,0-12.649,4.253-12.649s3.922,5.192,3.922,12.317Z" transform="translate(63.687 54.259)"/><path class="a" d="M50.023,37.916l7.9-6.683h4.64v-1.16H49.471v1.16h6.242L40.8,43.66l-1.049.387V11.9H23.51v1.215h3.922V60.4H23.786v1.215h19V60.4H39.749V45.373l1.27-.331L48.476,60.4H45.438v1.215H63.887V60.4h-2.43Z" transform="translate(92.594 40.021)"/><path class="a" d="M39.639,66.856H42.18V57.135c0-18.117,7.954-29.606,7.954-41.813,0-7.4-4.308-9.224-8.672-9.224a8.4,8.4,0,0,0-9.224,9.224c0,11.378,7.4,23.806,7.4,41.7Z" transform="translate(131.866 13.566)"/><path class="a" d="M40.744,17.869a8.175,8.175,0,0,0-8.561,8.672,7.9,7.9,0,0,0,8.782,8.506,8.009,8.009,0,0,0,8.561-8.727,7.843,7.843,0,0,0-8.782-8.451Z" transform="translate(131.7 66.751)"/><path class="b" d="M23.148,2.64V3.91H19.337V24.458H32.483V3.91H28.616V2.64H49.5V3.91H45.573V47.767H49.5v1.049H28.616v-1.27h3.866V26.17H19.337v21.6h3.811v1.049H2.49v-1.27H6.412V3.91H2.49V2.64Z" transform="translate(-2.49 -1.867)"/><path class="b" d="M28.484,5.27c10.384,0,14.858,5.524,14.416,15.079H24.231v2.6c0,7.843,1.381,13.146,7.843,13.146a10,10,0,0,0,9.666-8.23H42.9A12.7,12.7,0,0,1,28.539,37.969,15.19,15.19,0,0,1,11.471,21.4,15.521,15.521,0,0,1,28.484,5.27ZM31.3,19.024v-3.2c0-6.96-.552-9.28-3.259-9.28s-3.59,2.209-3.59,9.28v3.2Z" transform="translate(37.798 9.699)"/><path class="b" d="M17.383,5.33H36.605V6.49H32.96L40.2,28.584,47.873,6.49H43.454V5.33h9.39V6.49H49.53L37.1,42.172C34.12,50.733,30.7,53.219,25.448,53.219s-8.285-2.541-8.285-6.683a5.026,5.026,0,0,1,5.524-5.524c3.369,0,5.524,1.491,5.524,4.585a11.047,11.047,0,0,1-.387,2.375H25.5c-.663,1.988-.276,3.535,1.657,3.535,3.7,0,6.352-3.7,8.838-11.047l1.491-4.087H31.413L20.366,5.993H17.66Z" transform="translate(63.757 10.302)"/><path class="b" d="M16.263,33.8v5.192c0,12.207,3.48,20.106,10.716,20.106,5.524,0,9.666-5.524,13.367-14.2H41.56L41.118,59.54h-.773c-.442-.884-.718-1.326-1.768-1.326a71.805,71.805,0,0,1-13.2,2.044C11.347,60.258,2.73,52.8,2.73,37S12.01,12.48,25.6,12.48A65.178,65.178,0,0,1,37.97,14.524c1.049,0,1.326-.442,1.823-1.326h.718l.5,14.416h-1.16C36.2,19.44,32.226,13.806,26.536,13.806,19.853,13.971,16.263,20.047,16.263,33.8Z" transform="translate(-1.404 42.645)"/><path class="b" d="M27.357,15.257c11.047,0,16.571,5.247,16.571,15.963s-5.082,16.9-16.571,16.9A14.858,14.858,0,0,1,10.786,31.828,15.3,15.3,0,0,1,27.357,15.257Zm3.7,13.533c0-7.181,0-12.317-3.866-12.317s-4.253,5.137-4.253,12.649v5.137c0,7.678,0,12.649,4.143,12.649s3.977-3.922,3.977-12.483Z" transform="translate(34.673 54.947)"/><path class="b" d="M33.877,15.257c11.047,0,16.571,5.247,16.571,15.963s-5.026,16.9-16.571,16.9A14.858,14.858,0,0,1,17.306,31.828,15.3,15.3,0,0,1,33.877,15.257Zm3.7,13.533c0-7.181,0-12.317-3.922-12.317S29.4,21.609,29.4,29.121v5.137c0,7.678,0,12.649,4.2,12.649s3.977-3.922,3.977-12.483Z" transform="translate(64.166 54.947)"/><path class="b" d="M45.428,60.717h2.927L41.01,45.141l-1.27.331V60.5h3.093v1.215H23.776V60.5h3.646V13.436H23.5V12H39.739V44.147l1.049-.387L55.7,31.332H49.461v-1.16H62.551v1.16h-4.64l-7.9,6.96L61.5,60.717h2.375v.994H45.428Z" transform="translate(92.549 40.473)"/><path class="b" d="M40.734,71.417a7.843,7.843,0,0,1,8.782,8.451,8.064,8.064,0,0,1-8.561,8.782,7.954,7.954,0,0,1-8.782-8.561,8.175,8.175,0,0,1,8.561-8.672Zm-.939-14.03c0-17.841-7.4-30.269-7.4-41.7A8.4,8.4,0,0,1,41.617,6.24c4.364,0,8.672,1.823,8.672,9.224,0,12.207-7.954,23.7-7.954,41.813V67H39.795Z" transform="translate(131.656 14.197)"/></g></g></svg>