<svg xmlns="http://www.w3.org/2000/svg" width="9.451" height="9.355" viewBox="0 0 9.451 9.355"><defs><style>.a,.b{fill:#ff5c1e;}.b{fill-rule:evenodd;}</style></defs><g transform="translate(-2.25 -1.124)"><path class="a" d="M16.422,2.054a.323.323,0,0,1,0,.455l-.673.674-1.29-1.29.673-.674a.323.323,0,0,1,.456,0l.834.834ZM15.293,3.638,14,2.348l-4.4,4.4a.323.323,0,0,0-.078.126L9.01,8.429a.161.161,0,0,0,.2.2l1.558-.519a.323.323,0,0,0,.126-.077l4.4-4.4Z" transform="translate(-4.816 0)"/><path class="b" d="M2.25,10.315a.968.968,0,0,0,.968.968h7.1a.968.968,0,0,0,.968-.968V6.444a.323.323,0,0,0-.645,0v3.871a.323.323,0,0,1-.323.323h-7.1a.323.323,0,0,1-.323-.323v-7.1A.323.323,0,0,1,3.218,2.9H7.412a.323.323,0,0,0,0-.645H3.218a.968.968,0,0,0-.968.968Z" transform="translate(0 -0.803)"/></g></svg>