<svg xmlns="http://www.w3.org/2000/svg" width="58" height="10" viewBox="0 0 58 10"><defs><style>.a{fill:#ff5c1e;}.b{fill:#b2b7c6;}</style></defs><g transform="translate(-45 -422)"><path class="a" d="M2.9,7.6,4.841,9.43,4.3,11.98a.8.8,0,0,0,.324.832.6.6,0,0,0,.432.166.668.668,0,0,0,.324-.055.053.053,0,0,0,.054-.055l2.212-1.275,2.212,1.275a.053.053,0,0,1,.054.055.834.834,0,0,0,.809-.055.8.8,0,0,0,.324-.832l-.539-2.55a10.514,10.514,0,0,0,.863-.832l1.025-.942.054-.055a.79.79,0,0,0,.162-.832.842.842,0,0,0-.647-.554h-.054L9.373,5.993,8.348,3.61a.054.054,0,0,0-.054-.055A.587.587,0,0,0,7.7,3a.839.839,0,0,0-.7.443.054.054,0,0,1-.054.055L5.92,5.883,3.385,6.16H3.331a.936.936,0,0,0-.647.554A1.016,1.016,0,0,0,2.9,7.6Z" transform="translate(42.336 419)"/><path class="a" d="M2.9,7.6,4.841,9.43,4.3,11.98a.8.8,0,0,0,.324.832.6.6,0,0,0,.432.166.668.668,0,0,0,.324-.055.053.053,0,0,0,.054-.055l2.212-1.275,2.212,1.275a.053.053,0,0,1,.054.055.834.834,0,0,0,.809-.055.8.8,0,0,0,.324-.832l-.539-2.55a10.514,10.514,0,0,0,.863-.832l1.025-.942.054-.055a.79.79,0,0,0,.162-.832.842.842,0,0,0-.647-.554h-.054L9.373,5.993,8.348,3.61a.054.054,0,0,0-.054-.055A.587.587,0,0,0,7.7,3a.839.839,0,0,0-.7.443.054.054,0,0,1-.054.055L5.92,5.883,3.385,6.16H3.331a.936.936,0,0,0-.647.554A1.016,1.016,0,0,0,2.9,7.6Z" transform="translate(54.336 419)"/><path class="a" d="M2.9,7.6,4.841,9.43,4.3,11.98a.8.8,0,0,0,.324.832.6.6,0,0,0,.432.166.668.668,0,0,0,.324-.055.053.053,0,0,0,.054-.055l2.212-1.275,2.212,1.275a.053.053,0,0,1,.054.055.834.834,0,0,0,.809-.055.8.8,0,0,0,.324-.832l-.539-2.55a10.514,10.514,0,0,0,.863-.832l1.025-.942.054-.055a.79.79,0,0,0,.162-.832.842.842,0,0,0-.647-.554h-.054L9.373,5.993,8.348,3.61a.054.054,0,0,0-.054-.055A.587.587,0,0,0,7.7,3a.839.839,0,0,0-.7.443.054.054,0,0,1-.054.055L5.92,5.883,3.385,6.16H3.331a.936.936,0,0,0-.647.554A1.016,1.016,0,0,0,2.9,7.6Z" transform="translate(66.336 419)"/><path class="a" d="M2.9,7.6,4.841,9.43,4.3,11.98a.8.8,0,0,0,.324.832.6.6,0,0,0,.432.166.668.668,0,0,0,.324-.055.053.053,0,0,0,.054-.055l2.212-1.275,2.212,1.275a.053.053,0,0,1,.054.055.834.834,0,0,0,.809-.055.8.8,0,0,0,.324-.832l-.539-2.55a10.514,10.514,0,0,0,.863-.832l1.025-.942.054-.055a.79.79,0,0,0,.162-.832.842.842,0,0,0-.647-.554h-.054L9.373,5.993,8.348,3.61a.054.054,0,0,0-.054-.055A.587.587,0,0,0,7.7,3a.839.839,0,0,0-.7.443.054.054,0,0,1-.054.055L5.92,5.883,3.385,6.16H3.331a.936.936,0,0,0-.647.554A1.016,1.016,0,0,0,2.9,7.6Z" transform="translate(78.336 419)"/><path class="b" d="M2.9,7.6,4.841,9.43,4.3,11.98a.8.8,0,0,0,.324.832.6.6,0,0,0,.432.166.668.668,0,0,0,.324-.055.053.053,0,0,0,.054-.055l2.212-1.275,2.212,1.275a.053.053,0,0,1,.054.055.834.834,0,0,0,.809-.055.8.8,0,0,0,.324-.832l-.539-2.55a10.514,10.514,0,0,0,.863-.832l1.025-.942.054-.055a.79.79,0,0,0,.162-.832.842.842,0,0,0-.647-.554h-.054L9.373,5.993,8.348,3.61a.054.054,0,0,0-.054-.055A.587.587,0,0,0,7.7,3a.839.839,0,0,0-.7.443.054.054,0,0,1-.054.055L5.92,5.883,3.385,6.16H3.331a.936.936,0,0,0-.647.554A1.016,1.016,0,0,0,2.9,7.6Z" transform="translate(90.336 419)"/></g></svg>